<svg xmlns="http://www.w3.org/2000/svg" viewBox="0 0 256 256" role="img" aria-label="vangrail">
  <title>vangrail</title>
  <desc>End-on W-beam crash barrier with an amber reflector. Dutch for the steel barrier at the edge of a road.</desc>
  <defs>
    <linearGradient id="steel" x1="40" y1="56" x2="216" y2="200" gradientUnits="userSpaceOnUse">
      <stop offset="0" stop-color="#e8ecef"/>
      <stop offset="0.45" stop-color="#c4c9ce"/>
      <stop offset="1" stop-color="#8d949a"/>
    </linearGradient>
    <pattern id="hatch" width="7" height="7" patternUnits="userSpaceOnUse" patternTransform="rotate(58)">
      <rect width="7" height="7" fill="url(#steel)"/>
      <path d="M0 0 h7" stroke="#9aa1a7" stroke-width="2"/>
    </pattern>
    <linearGradient id="ridge" x1="0" y1="0" x2="0" y2="1">
      <stop offset="0" stop-color="#ffffff" stop-opacity="0.55"/>
      <stop offset="1" stop-color="#ffffff" stop-opacity="0"/>
    </linearGradient>
  </defs>
  <rect width="256" height="256" rx="32" fill="#9a958c"/>
  <path d="M114 176h28l6 42H108z" fill="#1b2124"/>
  <circle cx="122" cy="202" r="3.2" fill="#8b9298"/>
  <circle cx="134" cy="202" r="3.2" fill="#8b9298"/>
  <path
    d="M38 108 L48 88 L88 52 L114 78 L128 96 L142 78 L168 52 L208 88 L218 108
       L218 148 L208 168 L168 204 L142 178 L128 164 L114 178 L88 204 L48 168 L38 148 Z"
    fill="#14181b"/>
  <path
    d="M46 110 L56 92 L88 60 L112 84 L128 102 L144 84 L168 60 L200 92 L210 110
       L210 146 L200 164 L168 196 L144 172 L128 158 L112 172 L88 196 L56 164 L46 146 Z"
    fill="url(#hatch)" stroke="#d5dade" stroke-width="1.2"/>
  <path d="M56 92 L88 60 L112 84" fill="none" stroke="url(#ridge)" stroke-width="5" stroke-linecap="square"/>
  <path d="M144 84 L168 60 L200 92" fill="none" stroke="url(#ridge)" stroke-width="5" stroke-linecap="square"/>
  <rect x="110" y="108" width="36" height="36" rx="5" fill="#14181b"/>
  <rect x="114" y="112" width="28" height="28" rx="3" fill="#ef8c12"/>
  <circle cx="132" cy="120" r="3.4" fill="#fff6d8"/>
</svg>
